%
M48
M72
T01C0.02362
T02C0.02400
T03C0.03200
T04C0.03543
T05C0.03600
T06C0.03937
T07C0.04724
T08C0.12598
T09C0.13000
%
T01
X54456Y88150
T02
X88656Y59350
X122856Y127750
T03
X126056Y136250
X116056Y136250
X106056Y136250
X96056Y136250
X86056Y136250
X76056Y136250
X66056Y136250
X56056Y136250
X46056Y136250
X36056Y136250
X36056Y166250
X46056Y166250
X56056Y166250
X66056Y166250
X76056Y166250
X86056Y166250
X96056Y166250
X106056Y166250
X116056Y166250
X126056Y166250
X136056Y166250
X146056Y166250
X156056Y166250
X166056Y166250
X166056Y136250
X156056Y136250
X146056Y136250
X136056Y136250
X136856Y113550
X126856Y113550
X74356Y88550
X54356Y88550
X185856Y77950
X205856Y77950
T04
X107256Y51250
X99256Y51350
X91256Y51250
X95256Y43250
X87256Y43250
X103256Y43250
X59756Y51250
X55756Y43250
X47756Y43250
X51756Y51250
X43756Y51250
X39756Y43250
T05
X93556Y86250
X103556Y86250
X113556Y86250
X113556Y96250
X103556Y96250
X93556Y96250
X140856Y32950
X140856Y22950
X165856Y22950
X165856Y32950
X189256Y32850
X189256Y22850
X191056Y151250
X201056Y151250
X201056Y161250
X191056Y161250
X191056Y171250
X201056Y171250
T06
X23556Y118750
X23556Y108750
X23556Y98750
T07
X32056Y196250
X42056Y196250
X52056Y196250
X62056Y196250
X72056Y196250
X82056Y196250
X92056Y196250
X102056Y196250
X120456Y196150
X130456Y196150
X140456Y196150
X150456Y196150
X160456Y196150
X170456Y196150
X180456Y196150
X190456Y196150
X208556Y128750
X208556Y118750
T08
X13856Y23250
X13856Y198250
X208556Y198750
X208556Y23750
T09
X116056Y31250
X31056Y31250
M30
