G75*
%MOIN*%
%OFA0B0*%
%FSLAX25Y25*%
%IPPOS*%
%LPD*%
%AMOC8*
5,1,8,0,0,1.08239X$1,22.5*
%
%ADD10C,0.13398*%
%ADD11OC8,0.07400*%
%ADD12C,0.08300*%
%ADD13OC8,0.08300*%
%ADD14C,0.06000*%
%ADD15C,0.13800*%
%ADD16C,0.06343*%
%ADD17R,0.06343X0.06343*%
%ADD18C,0.07887*%
%ADD19C,0.06737*%
%ADD20OC8,0.06400*%
%ADD21C,0.06400*%
%ADD22C,0.04800*%
%ADD23R,0.04762X0.04762*%
D10*
X0013856Y0023250D03*
X0013856Y0198250D03*
X0208556Y0198750D03*
X0208556Y0023750D03*
D11*
X0136856Y0113550D03*
X0126856Y0113550D03*
D12*
X0054356Y0088550D03*
X0205856Y0077950D03*
D13*
X0185856Y0077950D03*
X0074356Y0088550D03*
D14*
X0076056Y0133650D02*
X0076056Y0138850D01*
X0066056Y0138850D02*
X0066056Y0133650D01*
X0056056Y0133650D02*
X0056056Y0138850D01*
X0046056Y0138850D02*
X0046056Y0133650D01*
X0036056Y0133650D02*
X0036056Y0138850D01*
X0036056Y0163650D02*
X0036056Y0168850D01*
X0046056Y0168850D02*
X0046056Y0163650D01*
X0056056Y0163650D02*
X0056056Y0168850D01*
X0066056Y0168850D02*
X0066056Y0163650D01*
X0076056Y0163650D02*
X0076056Y0168850D01*
X0086056Y0168850D02*
X0086056Y0163650D01*
X0096056Y0163650D02*
X0096056Y0168850D01*
X0106056Y0168850D02*
X0106056Y0163650D01*
X0116056Y0163650D02*
X0116056Y0168850D01*
X0126056Y0168850D02*
X0126056Y0163650D01*
X0136056Y0163650D02*
X0136056Y0168850D01*
X0146056Y0168850D02*
X0146056Y0163650D01*
X0156056Y0163650D02*
X0156056Y0168850D01*
X0166056Y0168850D02*
X0166056Y0163650D01*
X0166056Y0138850D02*
X0166056Y0133650D01*
X0156056Y0133650D02*
X0156056Y0138850D01*
X0146056Y0138850D02*
X0146056Y0133650D01*
X0136056Y0133650D02*
X0136056Y0138850D01*
X0126056Y0138850D02*
X0126056Y0133650D01*
X0116056Y0133650D02*
X0116056Y0138850D01*
X0106056Y0138850D02*
X0106056Y0133650D01*
X0096056Y0133650D02*
X0096056Y0138850D01*
X0086056Y0138850D02*
X0086056Y0133650D01*
D15*
X0116056Y0031250D03*
X0031056Y0031250D03*
D16*
X0047756Y0043250D03*
X0055756Y0043250D03*
X0059756Y0051250D03*
X0051756Y0051250D03*
X0043756Y0051250D03*
X0091256Y0051250D03*
X0099256Y0051350D03*
X0107256Y0051250D03*
X0103256Y0043250D03*
X0095256Y0043250D03*
D17*
X0087256Y0043250D03*
X0039756Y0043250D03*
D18*
X0042056Y0192707D02*
X0042056Y0199793D01*
X0052056Y0199793D02*
X0052056Y0192707D01*
X0062056Y0192707D02*
X0062056Y0199793D01*
X0072056Y0199793D02*
X0072056Y0192707D01*
X0082056Y0192707D02*
X0082056Y0199793D01*
X0092056Y0199793D02*
X0092056Y0192707D01*
X0102056Y0192707D02*
X0102056Y0199793D01*
X0120456Y0199693D02*
X0120456Y0192607D01*
X0130456Y0192607D02*
X0130456Y0199693D01*
X0140456Y0199693D02*
X0140456Y0192607D01*
X0150456Y0192607D02*
X0150456Y0199693D01*
X0160456Y0199693D02*
X0160456Y0192607D01*
X0170456Y0192607D02*
X0170456Y0199693D01*
X0180456Y0199693D02*
X0180456Y0192607D01*
X0190456Y0192607D02*
X0190456Y0199693D01*
X0205013Y0128750D02*
X0212099Y0128750D01*
X0212099Y0118750D02*
X0205013Y0118750D01*
X0032056Y0192707D02*
X0032056Y0199793D01*
D19*
X0026524Y0118750D02*
X0020587Y0118750D01*
X0020587Y0108750D02*
X0026524Y0108750D01*
X0026524Y0098750D02*
X0020587Y0098750D01*
D20*
X0093556Y0096250D03*
X0103556Y0096250D03*
X0113556Y0096250D03*
X0113556Y0086250D03*
X0103556Y0086250D03*
X0093556Y0086250D03*
X0191056Y0151250D03*
X0201056Y0151250D03*
X0201056Y0161250D03*
X0191056Y0161250D03*
X0191056Y0171250D03*
X0201056Y0171250D03*
D21*
X0192056Y0032850D02*
X0186456Y0032850D01*
X0186456Y0022850D02*
X0192056Y0022850D01*
X0168656Y0022950D02*
X0163056Y0022950D01*
X0163056Y0032950D02*
X0168656Y0032950D01*
X0143656Y0032950D02*
X0138056Y0032950D01*
X0138056Y0022950D02*
X0143656Y0022950D01*
D22*
X0088656Y0059350D03*
X0122856Y0127750D03*
D23*
X0054456Y0088150D03*
M02*
